<?xml version="1.0" encoding="iso-8859-1"?>
<!-- Uploaded to: SVG Repo, www.svgrepo.com, Generator: SVG Repo Mixer Tools -->
<!DOCTYPE svg PUBLIC "-//W3C//DTD SVG 1.1//EN" "http://www.w3.org/Graphics/SVG/1.1/DTD/svg11.dtd">
<svg fill="#000000" height="800px" width="800px" version="1.1" id="Capa_1" xmlns="http://www.w3.org/2000/svg" xmlns:xlink="http://www.w3.org/1999/xlink" 
	 viewBox="0 0 320.281 320.281" xml:space="preserve">
<g>
	<path d="M260.727,115.941l-97.891,53.473V57.89c0-4.971-4.029-9-9-9c-74.823,0-135.695,60.873-135.695,135.695
		s60.873,135.696,135.695,135.696s135.696-60.873,135.696-135.696c0-22.735-5.739-45.234-16.596-65.067
		C270.551,115.161,265.087,113.561,260.727,115.941z M153.836,302.281c-64.897,0-117.695-52.798-117.695-117.696
		c0-61.871,47.984-112.745,108.695-117.354v117.354c0,3.177,1.675,6.119,4.408,7.741c2.733,1.622,6.119,1.682,8.906,0.158
		l103.007-56.267c6.807,15.117,10.375,31.667,10.375,48.369C271.531,249.482,218.733,302.281,153.836,302.281z"/>
	<path d="M301.035,70.59c-23.221-42.42-67.63-69.468-115.896-70.588c-4.974-0.1-9.089,3.817-9.207,8.785l-2.995,126.658
		c-0.076,3.215,1.569,6.226,4.314,7.898c1.436,0.875,3.058,1.314,4.684,1.314c1.482,0,2.968-0.366,4.314-1.102L297.455,82.81
		c2.096-1.145,3.651-3.076,4.322-5.368C302.449,75.15,302.182,72.685,301.035,70.59z M191.3,120.286l2.406-101.733
		c35.355,3.565,67.468,23.126,86.91,52.944L191.3,120.286z"/>
</g>
</svg>